<?xml version="1.0" encoding="UTF-8"?>
<svg width="32" height="32" viewBox="0 0 32 32" fill="none" xmlns="http://www.w3.org/2000/svg">
    <circle cx="16" cy="16" r="15" fill="#2D89EF" stroke="#ffffff" stroke-width="2"/>
    <path d="M16 8C19.3137 8 22 10.6863 22 14C22 15.5913 21.3679 17.1174 20.2426 18.2426C19.1174 19.3679 17.5913 20 16 20V24M16 24H12M16 24H20" stroke="#ffffff" stroke-width="2" stroke-linecap="round" stroke-linejoin="round"/>
    <path d="M12 12C12 10.8954 12.8954 10 14 10H18C19.1046 10 20 10.8954 20 12V16C20 17.1046 19.1046 18 18 18H14C12.8954 18 12 17.1046 12 16V12Z" stroke="#ffffff" stroke-width="2"/>
</svg> 